STARTFONT 2.1
COMMENT converted Oberon font (using FontToBDF by R.Crelier 10.1.91)
FONT Times12i.Scn.Fnt
SIZE 12 75 75
FONTBOUNDINGBOX  11 14 0 -4
STARTPROPERTIES 3
FONT_ASCENT 10
FONT_DESCENT 4
DEFAULT_CHAR 0
ENDPROPERTIES
CHARS 121
STARTCHAR c0
ENCODING -1 0
SWIDTH 0 0
DWIDTH 0 0
BBX 0 0 0 0
BITMAP
ENDCHAR
STARTCHAR c9
ENCODING -1 9
SWIDTH 516 0
DWIDTH 16 0
BBX 0 0 0 0
BITMAP
ENDCHAR
STARTCHAR c32
ENCODING -1 32
SWIDTH 129 0
DWIDTH 4 0
BBX 0 0 0 0
BITMAP
ENDCHAR
STARTCHAR c33
ENCODING -1 33
SWIDTH 129 0
DWIDTH 4 0
BBX 3 9 1 0
BITMAP
20
20
20
40
40
40
00
00
80
ENDCHAR
STARTCHAR c34
ENCODING -1 34
SWIDTH 161 0
DWIDTH 5 0
BBX 4 3 1 6
BITMAP
50
50
A0
ENDCHAR
STARTCHAR c35
ENCODING -1 35
SWIDTH 225 0
DWIDTH 7 0
BBX 7 9 0 0
BITMAP
14
14
14
7E
28
FC
50
50
50
ENDCHAR
STARTCHAR c36
ENCODING -1 36
SWIDTH 225 0
DWIDTH 7 0
BBX 7 11 0 -1
BITMAP
08
3E
4A
50
50
38
14
14
A4
F8
20
ENDCHAR
STARTCHAR c37
ENCODING -1 37
SWIDTH 258 0
DWIDTH 8 0
BBX 7 9 0 0
BITMAP
42
A4
A4
48
10
24
4A
4A
84
ENDCHAR
STARTCHAR c38
ENCODING -1 38
SWIDTH 258 0
DWIDTH 8 0
BBX 7 9 0 0
BITMAP
0C
14
18
30
56
94
88
98
EC
ENDCHAR
STARTCHAR c39
ENCODING -1 39
SWIDTH 96 0
DWIDTH 3 0
BBX 2 3 1 6
BITMAP
40
40
80
ENDCHAR
STARTCHAR c40
ENCODING -1 40
SWIDTH 161 0
DWIDTH 5 0
BBX 5 12 0 -3
BITMAP
08
10
20
40
40
80
80
80
80
40
40
20
ENDCHAR
STARTCHAR c41
ENCODING -1 41
SWIDTH 161 0
DWIDTH 5 0
BBX 5 12 0 -3
BITMAP
20
10
10
08
08
08
08
10
10
20
40
80
ENDCHAR
STARTCHAR c42
ENCODING -1 42
SWIDTH 225 0
DWIDTH 7 0
BBX 7 7 0 0
BITMAP
08
4A
2C
10
68
A4
20
ENDCHAR
STARTCHAR c43
ENCODING -1 43
SWIDTH 225 0
DWIDTH 7 0
BBX 6 7 0 0
BITMAP
10
10
10
FC
20
20
20
ENDCHAR
STARTCHAR c44
ENCODING -1 44
SWIDTH 96 0
DWIDTH 3 0
BBX 2 4 1 -2
BITMAP
C0
40
40
80
ENDCHAR
STARTCHAR c45
ENCODING -1 45
SWIDTH 129 0
DWIDTH 4 0
BBX 3 1 0 3
BITMAP
E0
ENDCHAR
STARTCHAR c46
ENCODING -1 46
SWIDTH 96 0
DWIDTH 3 0
BBX 2 2 1 0
BITMAP
C0
C0
ENDCHAR
STARTCHAR c47
ENCODING -1 47
SWIDTH 193 0
DWIDTH 6 0
BBX 6 9 0 0
BITMAP
04
08
08
10
20
20
40
80
80
ENDCHAR
STARTCHAR c48
ENCODING -1 48
SWIDTH 193 0
DWIDTH 6 0
BBX 6 9 0 0
BITMAP
1C
24
44
44
84
88
88
90
E0
ENDCHAR
STARTCHAR c49
ENCODING -1 49
SWIDTH 193 0
DWIDTH 6 0
BBX 4 9 1 0
BITMAP
10
70
10
20
20
20
40
40
E0
ENDCHAR
STARTCHAR c50
ENCODING -1 50
SWIDTH 193 0
DWIDTH 6 0
BBX 6 9 0 0
BITMAP
38
44
04
08
08
10
20
48
F8
ENDCHAR
STARTCHAR c51
ENCODING -1 51
SWIDTH 193 0
DWIDTH 6 0
BBX 6 9 0 0
BITMAP
38
04
04
08
30
08
08
90
E0
ENDCHAR
STARTCHAR c52
ENCODING -1 52
SWIDTH 193 0
DWIDTH 6 0
BBX 5 9 0 0
BITMAP
08
18
28
50
50
90
F8
20
20
ENDCHAR
STARTCHAR c53
ENCODING -1 53
SWIDTH 193 0
DWIDTH 6 0
BBX 6 9 0 0
BITMAP
3C
20
40
70
08
08
08
10
E0
ENDCHAR
STARTCHAR c54
ENCODING -1 54
SWIDTH 193 0
DWIDTH 6 0
BBX 6 9 0 0
BITMAP
1C
20
40
40
B0
C8
88
90
60
ENDCHAR
STARTCHAR c55
ENCODING -1 55
SWIDTH 193 0
DWIDTH 6 0
BBX 5 9 1 0
BITMAP
F8
88
10
10
20
40
40
80
80
ENDCHAR
STARTCHAR c56
ENCODING -1 56
SWIDTH 193 0
DWIDTH 6 0
BBX 6 9 0 0
BITMAP
1C
24
24
28
30
50
90
90
E0
ENDCHAR
STARTCHAR c57
ENCODING -1 57
SWIDTH 193 0
DWIDTH 6 0
BBX 6 9 0 0
BITMAP
18
24
44
4C
34
08
08
10
E0
ENDCHAR
STARTCHAR c58
ENCODING -1 58
SWIDTH 96 0
DWIDTH 3 0
BBX 2 7 1 0
BITMAP
40
40
00
00
00
80
80
ENDCHAR
STARTCHAR c59
ENCODING -1 59
SWIDTH 96 0
DWIDTH 3 0
BBX 3 10 0 -3
BITMAP
20
20
00
00
00
40
40
40
40
80
ENDCHAR
STARTCHAR c60
ENCODING -1 60
SWIDTH 225 0
DWIDTH 7 0
BBX 7 7 0 0
BITMAP
06
18
60
80
40
30
0C
ENDCHAR
STARTCHAR c61
ENCODING -1 61
SWIDTH 225 0
DWIDTH 7 0
BBX 7 3 0 2
BITMAP
7E
00
FC
ENDCHAR
STARTCHAR c62
ENCODING -1 62
SWIDTH 225 0
DWIDTH 7 0
BBX 7 7 0 0
BITMAP
60
18
04
02
0C
30
C0
ENDCHAR
STARTCHAR c63
ENCODING -1 63
SWIDTH 193 0
DWIDTH 6 0
BBX 4 9 2 0
BITMAP
E0
90
10
20
40
40
00
80
80
ENDCHAR
STARTCHAR c64
ENCODING -1 64
SWIDTH 387 0
DWIDTH 12 0
BBX 11 11 0 -2
BITMAP
1F80
2040
4720
4920
8920
9220
9640
9B80
8000
4000
3E00
ENDCHAR
STARTCHAR c65
ENCODING -1 65
SWIDTH 225 0
DWIDTH 7 0
BBX 7 9 0 0
BITMAP
04
0C
0C
14
24
3C
44
84
CE
ENDCHAR
STARTCHAR c66
ENCODING -1 66
SWIDTH 258 0
DWIDTH 8 0
BBX 7 9 0 0
BITMAP
3C
12
12
24
3C
22
42
44
F8
ENDCHAR
STARTCHAR c67
ENCODING -1 67
SWIDTH 258 0
DWIDTH 8 0
BBX 8 9 0 0
BITMAP
0F
31
40
40
80
80
80
8C
70
ENDCHAR
STARTCHAR c68
ENCODING -1 68
SWIDTH 290 0
DWIDTH 9 0
BBX 8 9 0 0
BITMAP
3E
21
21
41
41
42
82
8C
F0
ENDCHAR
STARTCHAR c69
ENCODING -1 69
SWIDTH 258 0
DWIDTH 8 0
BBX 7 9 0 0
BITMAP
3E
12
10
24
38
28
40
44
F8
ENDCHAR
STARTCHAR c70
ENCODING -1 70
SWIDTH 225 0
DWIDTH 7 0
BBX 7 9 0 0
BITMAP
3E
12
10
24
38
28
40
40
E0
ENDCHAR
STARTCHAR c71
ENCODING -1 71
SWIDTH 290 0
DWIDTH 9 0
BBX 8 9 0 0
BITMAP
0F
31
40
40
87
82
82
46
78
ENDCHAR
STARTCHAR c72
ENCODING -1 72
SWIDTH 290 0
DWIDTH 9 0
BBX 9 9 0 0
BITMAP
3B80
1100
1100
2200
3E00
2200
4400
4400
EE00
ENDCHAR
STARTCHAR c73
ENCODING -1 73
SWIDTH 161 0
DWIDTH 5 0
BBX 5 9 0 0
BITMAP
38
10
10
20
20
20
40
40
E0
ENDCHAR
STARTCHAR c74
ENCODING -1 74
SWIDTH 161 0
DWIDTH 5 0
BBX 5 9 0 0
BITMAP
38
10
10
10
20
20
20
A0
C0
ENDCHAR
STARTCHAR c75
ENCODING -1 75
SWIDTH 258 0
DWIDTH 8 0
BBX 8 9 0 0
BITMAP
3B
11
12
24
28
28
44
44
EE
ENDCHAR
STARTCHAR c76
ENCODING -1 76
SWIDTH 225 0
DWIDTH 7 0
BBX 7 9 0 0
BITMAP
38
10
10
20
20
20
42
44
FC
ENDCHAR
STARTCHAR c77
ENCODING -1 77
SWIDTH 354 0
DWIDTH 11 0
BBX 11 9 0 0
BITMAP
38E0
18C0
1940
2A80
2A80
2C80
4D00
4900
EB80
ENDCHAR
STARTCHAR c78
ENCODING -1 78
SWIDTH 290 0
DWIDTH 9 0
BBX 9 9 0 0
BITMAP
3380
1100
1900
2A00
2A00
2A00
4C00
4400
E400
ENDCHAR
STARTCHAR c79
ENCODING -1 79
SWIDTH 290 0
DWIDTH 9 0
BBX 7 9 1 0
BITMAP
1C
22
42
42
82
84
84
88
70
ENDCHAR
STARTCHAR c80
ENCODING -1 80
SWIDTH 225 0
DWIDTH 7 0
BBX 7 9 0 0
BITMAP
3C
12
12
24
38
20
40
40
E0
ENDCHAR
STARTCHAR c81
ENCODING -1 81
SWIDTH 290 0
DWIDTH 9 0
BBX 7 12 1 -3
BITMAP
1C
22
42
42
82
84
84
88
70
40
E4
18
ENDCHAR
STARTCHAR c82
ENCODING -1 82
SWIDTH 258 0
DWIDTH 8 0
BBX 7 9 0 0
BITMAP
3C
12
12
24
38
28
44
44
E6
ENDCHAR
STARTCHAR c83
ENCODING -1 83
SWIDTH 225 0
DWIDTH 7 0
BBX 6 9 0 0
BITMAP
3C
44
40
20
30
10
08
88
F0
ENDCHAR
STARTCHAR c84
ENCODING -1 84
SWIDTH 193 0
DWIDTH 6 0
BBX 6 9 0 0
BITMAP
FC
94
10
20
20
20
40
40
E0
ENDCHAR
STARTCHAR c85
ENCODING -1 85
SWIDTH 290 0
DWIDTH 9 0
BBX 9 9 0 0
BITMAP
7380
2100
2100
4200
4200
4200
8400
8C00
7000
ENDCHAR
STARTCHAR c86
ENCODING -1 86
SWIDTH 225 0
DWIDTH 7 0
BBX 7 9 0 0
BITMAP
E6
42
44
44
48
50
60
60
40
ENDCHAR
STARTCHAR c87
ENCODING -1 87
SWIDTH 354 0
DWIDTH 11 0
BBX 11 9 0 0
BITMAP
EE60
4420
4C40
4C40
5480
5500
6600
6600
4400
ENDCHAR
STARTCHAR c88
ENCODING -1 88
SWIDTH 258 0
DWIDTH 8 0
BBX 8 9 0 0
BITMAP
73
21
22
14
18
28
44
84
CE
ENDCHAR
STARTCHAR c89
ENCODING -1 89
SWIDTH 225 0
DWIDTH 7 0
BBX 7 9 0 0
BITMAP
76
22
24
28
30
20
40
40
E0
ENDCHAR
STARTCHAR c90
ENCODING -1 90
SWIDTH 225 0
DWIDTH 7 0
BBX 7 9 0 0
BITMAP
7E
44
08
08
10
20
20
44
FC
ENDCHAR
STARTCHAR c91
ENCODING -1 91
SWIDTH 161 0
DWIDTH 5 0
BBX 5 12 0 -3
BITMAP
38
20
20
20
40
40
40
40
80
80
80
E0
ENDCHAR
STARTCHAR c92
ENCODING -1 92
SWIDTH 161 0
DWIDTH 5 0
BBX 2 9 1 0
BITMAP
80
80
80
80
C0
40
40
40
40
ENDCHAR
STARTCHAR c93
ENCODING -1 93
SWIDTH 161 0
DWIDTH 5 0
BBX 5 12 0 -3
BITMAP
38
08
08
08
10
10
10
10
20
20
20
E0
ENDCHAR
STARTCHAR c94
ENCODING -1 94
SWIDTH 193 0
DWIDTH 6 0
BBX 6 8 0 0
BITMAP
18
28
54
94
10
20
20
20
ENDCHAR
STARTCHAR c95
ENCODING -1 95
SWIDTH 193 0
DWIDTH 6 0
BBX 6 1 0 3
BITMAP
FC
ENDCHAR
STARTCHAR c96
ENCODING -1 96
SWIDTH 225 0
DWIDTH 7 0
BBX 2 2 4 8
BITMAP
80
40
ENDCHAR
STARTCHAR c97
ENCODING -1 97
SWIDTH 225 0
DWIDTH 7 0
BBX 6 7 0 0
BITMAP
1C
24
44
48
98
A8
CC
ENDCHAR
STARTCHAR c98
ENCODING -1 98
SWIDTH 225 0
DWIDTH 7 0
BBX 6 10 0 0
BITMAP
60
20
20
4C
54
64
48
88
90
E0
ENDCHAR
STARTCHAR c99
ENCODING -1 99
SWIDTH 193 0
DWIDTH 6 0
BBX 6 7 0 0
BITMAP
1C
24
40
40
80
90
E0
ENDCHAR
STARTCHAR c100
ENCODING -1 100
SWIDTH 225 0
DWIDTH 7 0
BBX 7 10 0 0
BITMAP
06
02
02
1C
24
44
48
98
A8
CC
ENDCHAR
STARTCHAR c101
ENCODING -1 101
SWIDTH 193 0
DWIDTH 6 0
BBX 6 7 0 0
BITMAP
1C
24
48
70
80
90
E0
ENDCHAR
STARTCHAR c102
ENCODING -1 102
SWIDTH 129 0
DWIDTH 4 0
BBX 4 13 0 -3
BITMAP
30
20
20
F0
40
40
40
80
80
80
80
80
80
ENDCHAR
STARTCHAR c103
ENCODING -1 103
SWIDTH 193 0
DWIDTH 6 0
BBX 6 10 0 -3
BITMAP
3C
48
48
70
20
40
70
88
88
F0
ENDCHAR
STARTCHAR c104
ENCODING -1 104
SWIDTH 225 0
DWIDTH 7 0
BBX 6 10 0 0
BITMAP
30
10
10
2C
34
64
48
48
90
98
ENDCHAR
STARTCHAR c105
ENCODING -1 105
SWIDTH 129 0
DWIDTH 4 0
BBX 4 10 0 0
BITMAP
10
00
00
60
20
40
40
40
80
C0
ENDCHAR
STARTCHAR c106
ENCODING -1 106
SWIDTH 129 0
DWIDTH 4 0
BBX 4 13 0 -3
BITMAP
10
00
00
60
20
20
40
40
40
40
80
80
80
ENDCHAR
STARTCHAR c107
ENCODING -1 107
SWIDTH 225 0
DWIDTH 7 0
BBX 6 10 0 0
BITMAP
60
20
20
4C
48
50
60
A0
90
98
ENDCHAR
STARTCHAR c108
ENCODING -1 108
SWIDTH 129 0
DWIDTH 4 0
BBX 4 10 0 0
BITMAP
30
10
20
20
20
40
40
40
80
C0
ENDCHAR
STARTCHAR c109
ENCODING -1 109
SWIDTH 322 0
DWIDTH 10 0
BBX 9 7 0 0
BITMAP
6D80
3680
2480
4900
4900
9200
9300
ENDCHAR
STARTCHAR c110
ENCODING -1 110
SWIDTH 225 0
DWIDTH 7 0
BBX 6 7 0 0
BITMAP
6C
34
24
48
48
90
98
ENDCHAR
STARTCHAR c111
ENCODING -1 111
SWIDTH 225 0
DWIDTH 7 0
BBX 6 7 0 0
BITMAP
1C
24
44
48
88
90
E0
ENDCHAR
STARTCHAR c112
ENCODING -1 112
SWIDTH 225 0
DWIDTH 7 0
BBX 6 10 0 -3
BITMAP
CC
54
64
48
88
90
E0
80
80
C0
ENDCHAR
STARTCHAR c113
ENCODING -1 113
SWIDTH 225 0
DWIDTH 7 0
BBX 6 10 0 -3
BITMAP
1C
24
44
48
98
A8
C8
10
10
38
ENDCHAR
STARTCHAR c114
ENCODING -1 114
SWIDTH 129 0
DWIDTH 4 0
BBX 4 7 0 0
BITMAP
D0
70
40
40
80
80
80
ENDCHAR
STARTCHAR c115
ENCODING -1 115
SWIDTH 161 0
DWIDTH 5 0
BBX 4 7 0 0
BITMAP
30
40
40
60
20
20
C0
ENDCHAR
STARTCHAR c116
ENCODING -1 116
SWIDTH 129 0
DWIDTH 4 0
BBX 4 9 0 0
BITMAP
20
20
F0
40
40
40
80
A0
C0
ENDCHAR
STARTCHAR c117
ENCODING -1 117
SWIDTH 225 0
DWIDTH 7 0
BBX 6 7 0 0
BITMAP
64
24
48
48
90
B0
D8
ENDCHAR
STARTCHAR c118
ENCODING -1 118
SWIDTH 161 0
DWIDTH 5 0
BBX 5 7 0 0
BITMAP
D8
48
50
50
60
40
40
ENDCHAR
STARTCHAR c119
ENCODING -1 119
SWIDTH 258 0
DWIDTH 8 0
BBX 8 7 0 0
BITMAP
DB
49
5A
5A
6C
48
48
ENDCHAR
STARTCHAR c120
ENCODING -1 120
SWIDTH 193 0
DWIDTH 6 0
BBX 5 7 0 0
BITMAP
68
28
30
20
60
A0
B0
ENDCHAR
STARTCHAR c121
ENCODING -1 121
SWIDTH 161 0
DWIDTH 5 0
BBX 5 10 0 -3
BITMAP
D8
48
50
50
60
40
40
80
80
80
ENDCHAR
STARTCHAR c122
ENCODING -1 122
SWIDTH 193 0
DWIDTH 6 0
BBX 5 7 0 0
BITMAP
78
48
10
20
40
90
F0
ENDCHAR
STARTCHAR c123
ENCODING -1 123
SWIDTH 161 0
DWIDTH 5 0
BBX 5 12 0 -3
BITMAP
18
20
20
20
20
C0
40
40
40
80
80
E0
ENDCHAR
STARTCHAR c124
ENCODING -1 124
SWIDTH 161 0
DWIDTH 5 0
BBX 4 12 0 -3
BITMAP
10
10
10
20
20
20
40
40
40
80
80
80
ENDCHAR
STARTCHAR c125
ENCODING -1 125
SWIDTH 161 0
DWIDTH 5 0
BBX 5 12 0 -3
BITMAP
38
08
08
10
10
10
18
20
20
20
20
C0
ENDCHAR
STARTCHAR c126
ENCODING -1 126
SWIDTH 225 0
DWIDTH 7 0
BBX 7 3 0 2
BITMAP
62
92
8C
ENDCHAR
STARTCHAR c128
ENCODING -1 128
SWIDTH 225 0
DWIDTH 7 0
BBX 7 10 0 0
BITMAP
12
04
0C
0C
14
24
3C
44
84
CE
ENDCHAR
STARTCHAR c129
ENCODING -1 129
SWIDTH 290 0
DWIDTH 9 0
BBX 8 10 1 0
BITMAP
21
1C
22
42
42
82
84
84
88
70
ENDCHAR
STARTCHAR c130
ENCODING -1 130
SWIDTH 290 0
DWIDTH 9 0
BBX 9 9 0 0
BITMAP
6B80
2900
2900
4200
4200
4200
8400
8C00
7000
ENDCHAR
STARTCHAR c131
ENCODING -1 131
SWIDTH 225 0
DWIDTH 7 0
BBX 7 9 0 0
BITMAP
12
00
1C
24
44
48
98
A8
CC
ENDCHAR
STARTCHAR c132
ENCODING -1 132
SWIDTH 225 0
DWIDTH 7 0
BBX 7 9 0 0
BITMAP
12
00
1C
24
44
48
88
90
E0
ENDCHAR
STARTCHAR c133
ENCODING -1 133
SWIDTH 225 0
DWIDTH 7 0
BBX 7 9 0 0
BITMAP
12
00
64
24
48
48
90
B0
D8
ENDCHAR
STARTCHAR c134
ENCODING -1 134
SWIDTH 225 0
DWIDTH 7 0
BBX 7 10 0 0
BITMAP
06
0A
00
1C
24
44
48
98
A8
CC
ENDCHAR
STARTCHAR c135
ENCODING -1 135
SWIDTH 193 0
DWIDTH 6 0
BBX 6 10 0 0
BITMAP
0C
14
00
1C
24
48
70
80
90
E0
ENDCHAR
STARTCHAR c136
ENCODING -1 136
SWIDTH 129 0
DWIDTH 4 0
BBX 4 10 0 0
BITMAP
30
50
00
60
20
40
40
40
80
C0
ENDCHAR
STARTCHAR c137
ENCODING -1 137
SWIDTH 225 0
DWIDTH 7 0
BBX 6 10 0 0
BITMAP
0C
14
00
1C
24
44
48
88
90
E0
ENDCHAR
STARTCHAR c138
ENCODING -1 138
SWIDTH 225 0
DWIDTH 7 0
BBX 6 10 0 0
BITMAP
0C
14
00
64
24
48
48
90
B0
D8
ENDCHAR
STARTCHAR c139
ENCODING -1 139
SWIDTH 225 0
DWIDTH 7 0
BBX 6 10 0 0
BITMAP
08
04
00
1C
24
44
48
98
A8
CC
ENDCHAR
STARTCHAR c140
ENCODING -1 140
SWIDTH 193 0
DWIDTH 6 0
BBX 6 10 0 0
BITMAP
08
04
00
1C
24
48
70
80
90
E0
ENDCHAR
STARTCHAR c141
ENCODING -1 141
SWIDTH 129 0
DWIDTH 4 0
BBX 4 10 0 0
BITMAP
20
10
00
60
20
40
40
40
80
C0
ENDCHAR
STARTCHAR c142
ENCODING -1 142
SWIDTH 225 0
DWIDTH 7 0
BBX 6 10 0 0
BITMAP
08
04
00
1C
24
44
48
88
90
E0
ENDCHAR
STARTCHAR c143
ENCODING -1 143
SWIDTH 225 0
DWIDTH 7 0
BBX 6 10 0 0
BITMAP
08
04
00
64
24
48
48
90
B0
D8
ENDCHAR
STARTCHAR c144
ENCODING -1 144
SWIDTH 193 0
DWIDTH 6 0
BBX 6 10 0 0
BITMAP
04
08
00
1C
24
48
70
80
90
E0
ENDCHAR
STARTCHAR c145
ENCODING -1 145
SWIDTH 193 0
DWIDTH 6 0
BBX 6 9 0 0
BITMAP
14
00
1C
24
48
70
80
90
E0
ENDCHAR
STARTCHAR c146
ENCODING -1 146
SWIDTH 129 0
DWIDTH 4 0
BBX 4 9 0 0
BITMAP
50
00
60
20
40
40
40
80
C0
ENDCHAR
STARTCHAR c147
ENCODING -1 147
SWIDTH 193 0
DWIDTH 6 0
BBX 6 11 0 -4
BITMAP
1C
24
40
40
80
90
E0
00
C0
40
80
ENDCHAR
STARTCHAR c148
ENCODING -1 148
SWIDTH 225 0
DWIDTH 7 0
BBX 7 10 0 0
BITMAP
02
04
00
1C
24
44
48
98
A8
CC
ENDCHAR
STARTCHAR c149
ENCODING -1 149
SWIDTH 225 0
DWIDTH 7 0
BBX 7 10 0 0
BITMAP
1A
2C
00
6C
34
24
48
48
90
98
ENDCHAR
STARTCHAR c155
ENCODING -1 155
SWIDTH 193 0
DWIDTH 6 0
BBX 6 1 0 3
BITMAP
FC
ENDCHAR
STARTCHAR c159
ENCODING -1 159
SWIDTH 193 0
DWIDTH 6 0
BBX 0 0 0 0
BITMAP
ENDCHAR
ENDFONT
